<svg
  height="40.881001" id="svg1" viewBox="0 0 39.6875 10.816432" width="150"
  xml:space="preserve" xmlns="http://www.w3.org/2000/svg">
  <defs id="defs1"/>
  <g id="layer1">
    <g id="logo" transform="matrix(0.9946422,0,0,0.9946422,-17.33507,-13.795505)">
      <g class="logo-letter" id="logo-text" style="display:inline">
        <path
          class="logo-letter"
          d="m 52.198279,23.72965 v -1.204057 h 0.692462 q 0.186034,0 0.299722,-0.05684 0.113688,-0.05684 0.191202,-0.186035 0.08268,-0.124023 0.155029,-0.335895 l 0.149861,-0.397908 -2.098056,-5.436343 h 1.596797 l 0.914669,2.697501 q 0.155029,0.475422 0.299723,0.961179 0.144693,0.480589 0.279052,0.966346 h -0.423746 q 0.129191,-0.485757 0.273885,-0.966346 0.144693,-0.485757 0.299722,-0.961179 l 0.919837,-2.697501 h 1.581294 l -2.402946,6.299337 q -0.170532,0.454751 -0.41341,0.744138 -0.237711,0.294555 -0.563272,0.434081 -0.320393,0.139526 -0.744138,0.139526 -0.248046,0 -0.506427,0 -0.253214,0 -0.50126,0 z"
          id="letter-y"
          style="font-weight:bold;font-size:10.5833px;font-family:inter;-inkscape-font-specification:'inter Bold';display:inline;stroke-width:0.264583"/>
        <path
          class="logo-letter"
          d="m 50.909482,13.869818 v 7.699764 h -1.52445 v -7.699764 z"
          id="letter-l"
          style="font-weight:bold;font-size:10.5833px;font-family:inter;-inkscape-font-specification:'inter Bold';display:inline;stroke-width:0.264583"/>
        <path
          class="logo-letter"
          d="m 45.428709,21.569582 v -5.457014 h 1.467606 v 0.930173 h 0.0155 q 0.149862,-0.490925 0.470255,-0.728635 0.320392,-0.237711 0.862993,-0.237711 0.134358,0 0.242879,0.0052 0.113687,0 0.206705,0.0052 v 1.297074 q -0.08268,-0.0052 -0.273885,-0.0155 -0.186034,-0.01033 -0.382404,-0.01033 -0.310057,0 -0.558104,0.144694 -0.248046,0.139526 -0.387572,0.418577 -0.139526,0.279052 -0.139526,0.692462 v 2.955883 z"
          id="letter-r"
          style="font-weight:bold;font-size:10.5833px;font-family:inter;-inkscape-font-specification:'inter Bold';display:inline;stroke-width:0.264583"/>
        <path
          class="logo-letter"
          d="m 41.976735,21.693605 q -0.826821,0 -1.441768,-0.361734 -0.60978,-0.366901 -0.950844,-1.012855 -0.335895,-0.645953 -0.335895,-1.472773 0,-0.837156 0.341063,-1.477942 0.346231,-0.645953 0.950843,-1.012854 0.604613,-0.366902 1.384924,-0.366902 0.604613,0 1.095537,0.206705 0.490925,0.201538 0.847491,0.583942 0.356566,0.377237 0.547769,0.893999 0.196369,0.516763 0.196369,1.142046 v 0.408242 h -4.821395 v -0.971513 h 4.087592 l -0.687294,0.232543 q 0,-0.41341 -0.149861,-0.713133 -0.149861,-0.299722 -0.428913,-0.459918 -0.273884,-0.165365 -0.656289,-0.165365 -0.377237,0 -0.651121,0.165365 -0.273884,0.160196 -0.423745,0.459918 -0.149861,0.299723 -0.149861,0.713133 v 0.661456 q 0,0.423745 0.149861,0.744138 0.155029,0.315226 0.444416,0.490925 0.289387,0.170532 0.697629,0.170532 0.299723,0 0.527098,-0.08268 0.232543,-0.08785 0.387572,-0.242878 0.160197,-0.160196 0.227376,-0.372069 h 1.390091 q -0.09818,0.542601 -0.459918,0.956011 -0.361734,0.41341 -0.909503,0.651121 -0.547768,0.232543 -1.209224,0.232543 z"
          id="letter-e"
          style="font-weight:bold;font-size:10.5833px;font-family:inter;-inkscape-font-specification:'inter Bold';display:inline;stroke-width:0.264583"/>
        <path
          class="logo-letter"
          d="m 38.796585,16.112568 v 1.193722 h -3.581166 v -1.193722 z m -2.640657,-1.488276 h 1.524449 v 5.260644 q 0,0.273884 0.108521,0.382404 0.113687,0.10852 0.423745,0.10852 0.129191,0 0.30489,0 0.180867,0 0.279052,0 v 1.193722 q -0.139526,0 -0.387572,0 -0.248046,0 -0.50126,0 -0.899167,0 -1.32808,-0.351399 -0.423745,-0.351398 -0.423745,-1.095537 z"
          id="letter-t"
          style="font-weight:bold;font-size:10.5833px;font-family:inter;-inkscape-font-specification:'inter Bold';display:inline;stroke-width:0.264583"/>
        <path
          class="logo-letter"
          d="m 23.190352,23.72965 v -7.617082 h 1.50378 v 0.738971 h 0.0155 q 0.170531,-0.28422 0.408242,-0.470254 0.242879,-0.191202 0.547769,-0.28422 0.310057,-0.09819 0.661456,-0.09819 0.69763,0 1.224727,0.361734 0.532266,0.356566 0.826821,0.997352 0.299722,0.635618 0.299722,1.477941 0,0.852659 -0.294555,1.493445 -0.294554,0.640785 -0.821652,0.997352 -0.527098,0.356566 -1.245398,0.356566 -0.356567,0 -0.661457,-0.103353 -0.299722,-0.103352 -0.537433,-0.310057 -0.232543,-0.206705 -0.387572,-0.516763 h -0.0155 v 2.976553 z m 2.733675,-3.286611 q 0.372069,0 0.640786,-0.186034 0.273884,-0.191202 0.423745,-0.547769 0.155029,-0.361734 0.155029,-0.873329 0,-0.511595 -0.155029,-0.868161 -0.149861,-0.356566 -0.423745,-0.547768 -0.268717,-0.191203 -0.640786,-0.191203 -0.382404,0 -0.676959,0.201538 -0.289387,0.19637 -0.449584,0.558104 -0.155028,0.356566 -0.155028,0.84749 0,0.485757 0.155028,0.847491 0.160197,0.361734 0.449584,0.563272 0.294555,0.196369 0.676959,0.196369 z"
          id="letter-p"
          style="font-weight:bold;font-size:10.5833px;font-family:inter;-inkscape-font-specification:'inter Bold';display:inline;stroke-width:0.264583"/>
        <path
          class="logo-letter"
          d="m 19.955418,21.70394 q -0.707965,0 -1.260901,-0.21704 -0.552936,-0.222208 -0.883664,-0.635618 -0.330728,-0.41341 -0.382404,-0.997352 h 1.498612 q 0.04134,0.356566 0.299722,0.558104 0.258381,0.201537 0.702797,0.201537 0.423745,0 0.661456,-0.160196 0.242879,-0.160197 0.242879,-0.413411 0,-0.21704 -0.186035,-0.351398 -0.180867,-0.134358 -0.516762,-0.19637 l -0.956011,-0.186035 q -0.795815,-0.155028 -1.209225,-0.558103 -0.41341,-0.403075 -0.41341,-1.033526 0,-0.516762 0.279052,-0.904334 0.284219,-0.387572 0.800982,-0.599445 0.52193,-0.211873 1.235063,-0.211873 0.707964,0 1.235062,0.227376 0.527098,0.222208 0.821653,0.635618 0.299722,0.41341 0.315225,0.981849 h -1.410762 q -0.0052,-0.330728 -0.258381,-0.547768 -0.253214,-0.217041 -0.661456,-0.217041 -0.39274,0 -0.614948,0.170532 -0.222208,0.165364 -0.222208,0.408243 0,0.211872 0.175699,0.346231 0.1757,0.134358 0.485757,0.201537 l 1.033526,0.201537 q 0.82682,0.160197 1.214392,0.527098 0.39274,0.361734 0.39274,0.966347 0,0.5426 -0.310058,0.950843 -0.30489,0.403075 -0.852658,0.63045 -0.542601,0.222208 -1.255734,0.222208 z"
          id="letter-s"
          style="font-weight:bold;font-size:10.5833px;font-family:inter;-inkscape-font-specification:'inter Bold';display:inline;stroke-width:0.264583"/>
      </g>
      <path
        class="logo-marker"
        d="m 32.049749,15.787 c -1.731415,0 -3.134999,1.403846 -3.134999,3.135084 0,1.731462 3.134999,5.822297 3.134999,5.822297 0,0 3.135001,-4.090835 3.135001,-5.822297 0,-1.731238 -1.403584,-3.135084 -3.135001,-3.135084 z m 0,4.702625 a 1.5675001,1.5675416 0 1 1 0,-3.135082 1.5675001,1.5675416 0 0 1 0,3.135082 z"
        id="logo-marker"
        style="display:inline;fill-opacity:1;stroke-width:0.0104968"/>
    </g>
  </g>
</svg>
