<svg width="81" height="90" viewBox="0 0 81 90" fill="none" xmlns="http://www.w3.org/2000/svg">
<path d="M53.5 73.5C53.5 81.3051 47.3839 87.5 40 87.5C32.6161 87.5 26.5 81.3051 26.5 73.5C26.5 65.6949 32.6161 59.5 40 59.5C47.3839 59.5 53.5 65.6949 53.5 73.5Z" fill="white" stroke="black" stroke-width="5"/>
<path d="M40.5 40.5C42.3563 40.5 43.9453 39.8391 45.2672 38.5172C46.5891 37.1953 47.25 35.6063 47.25 33.75C47.25 31.8938 46.5891 30.3047 45.2672 28.9828C43.9453 27.6609 42.3563 27 40.5 27C38.6438 27 37.0547 27.6609 35.7328 28.9828C34.4109 30.3047 33.75 31.8938 33.75 33.75C33.75 35.6063 34.4109 37.1953 35.7328 38.5172C37.0547 39.8391 38.6438 40.5 40.5 40.5ZM40.5 74.25C31.4438 66.5438 24.6797 59.3859 20.2078 52.7766C15.7359 46.1672 13.5 40.05 13.5 34.425C13.5 25.9875 16.2141 19.2656 21.6422 14.2594C27.0703 9.25313 33.3563 6.75 40.5 6.75C47.6438 6.75 53.9297 9.25313 59.3578 14.2594C64.7859 19.2656 67.5 25.9875 67.5 34.425C67.5 40.05 65.2641 46.1672 60.7922 52.7766C56.3203 59.3859 49.5563 66.5438 40.5 74.25Z" fill="black"/>
</svg>
